<?xml version="1.0" encoding="utf-8"?>
<!-- Generator: Adobe Illustrator 25.4.0, SVG Export Plug-In . SVG Version: 6.00 Build 0)  -->
<svg version="1.1" id="Layer_1" xmlns="http://www.w3.org/2000/svg" xmlns:xlink="http://www.w3.org/1999/xlink" x="0px" y="0px"
	 viewBox="0 0 1147.1 205.5" style="enable-background:new 0 0 1147.1 205.5;" xml:space="preserve">
<style type="text/css">
	.st0{fill:#FFFFFF;}
</style>
<polygon class="st0" points="293.6,43.6 250.4,43.6 250.4,-0.1 221.5,-0.1 221.5,113.3 250.4,113.3 250.4,68.7 293.6,68.7 
	293.6,113.3 322.5,113.3 322.5,-0.1 293.6,-0.1 "/>
<path class="st0" d="M382.5,89.7h-2.8l-17.4-62.2H334l25,83.9h18.7l-0.6,2.6c-0.3,2.1-1.1,4.1-2.3,5.8c-1,1.4-2.4,2.4-4,3
	c-2,0.6-4,0.9-6.1,0.9H345v23.6h16.6c8.2,0,14.8-0.9,20-2.6c4.9-1.5,9.1-4.5,12.1-8.7c3-4.1,5.3-9.7,6.9-16.7l22.5-92h-26.7
	L382.5,89.7z"/>
<path class="st0" d="M517.8,37.3c-3.4-3.9-7.6-7-12.3-9c-5.1-2.2-10.5-3.3-16-3.2c-6.4-0.1-12.7,1.5-18.2,4.6
	c-5.4,3.1-9.7,7.8-12.5,13.4c-1,2.1-1.9,4.2-2.6,6.4v-22h-22.4v116.9h28.3v-40.9c2.6,3.6,6,6.6,9.9,8.7c5.5,2.7,11.5,4.1,17.6,4
	c5.7,0.1,11.3-1,16.5-3.3c4.7-2.1,8.9-5.3,12.2-9.2c3.4-4.1,5.9-8.9,7.5-14c1.7-5.7,2.6-11.6,2.5-17.5v-3.7
	c0.1-5.9-0.9-11.8-2.7-17.4C524,46,521.3,41.3,517.8,37.3z M497.7,81.9c-1.4,3.2-3.8,6-6.7,8c-2.9,1.9-6.4,3-9.9,2.9
	c-3.2,0-6.4-0.8-9.2-2.3c-3-1.5-5.6-3.7-7.5-6.5c-2.1-3-3.1-6.6-3-10.3v-5.3c-0.1-3.8,0.8-7.6,2.8-10.9c1.7-2.9,4.2-5.2,7.2-6.8
	c3-1.6,6.3-2.4,9.6-2.3c3.5-0.1,6.9,0.9,9.9,2.7c2.8,1.9,5.1,4.5,6.6,7.6c1.7,3.6,2.5,7.6,2.4,11.6
	C500.1,74.3,499.4,78.3,497.7,81.9z"/>
<path class="st0" d="M606.7,30.7c-6.4-4.1-14.2-6.2-23.5-6.2c-6.4-0.1-12.7,1.1-18.6,3.7c-5.3,2.3-10,5.6-13.9,9.9
	c-3.8,4.1-6.7,8.9-8.7,14.2c-2,5.3-3,11-3,16.7v3.1c0,5.6,1,11.1,3,16.3c2,5.3,5,10.2,8.8,14.3c3.9,4.3,8.7,7.8,14.1,10.1
	c6.1,2.6,12.7,3.8,19.3,3.7c6.7,0.1,13.4-1.2,19.5-3.9c5.4-2.5,10.2-6.1,14-10.7c3.6-4.5,6.2-9.8,7.4-15.5h-25.8
	c-1.1,2.4-3,4.3-5.4,5.4c-3,1.4-6.4,2.1-9.7,2c-4.5,0-8.1-0.9-10.9-2.8c-2.9-1.9-5-4.7-6.2-8c-0.6-1.5-1-3.1-1.3-4.7h60.8v-9
	c0.1-7.7-1.7-15.2-5.1-22.1C618.2,40.5,613,34.8,606.7,30.7z M565.7,63c0.3-1.9,0.9-3.7,1.6-5.5c1.2-3.2,3.4-6,6.3-7.8
	c2.9-1.8,6.3-2.7,9.7-2.6c3.4-0.1,6.7,0.8,9.6,2.6c2.7,1.9,4.7,4.6,5.7,7.7c0.6,1.8,1.1,3.6,1.4,5.5L565.7,63L565.7,63z"/>
<path class="st0" d="M671.1,36.6c-4.1,5.5-6.4,12.7-7.2,21.6V27.6h-22.4v85.8h28.3v-43c0-6.4,1.7-11.3,5.2-14.8s8.4-5.1,14.7-5.1
	h6.5V26.3h-3.4C683.4,26.3,676.1,29.7,671.1,36.6z"/>
<path class="st0" d="M774.5,68.4c-6-4.9-14.4-7.9-25.4-9.1l-5.9-0.6c-4.3-0.5-7.3-1.3-9.2-2.3c-1.8-0.9-3-2.8-2.9-4.8
	c0-2.1,1.1-3.9,3-4.8c2.4-1.2,5.1-1.8,7.8-1.7c4.5,0,7.9,0.9,10.3,2.7c2.2,1.5,3.8,3.9,4.2,6.6h24.9c-0.4-9.4-4.1-16.7-11.2-21.7
	s-16.3-7.5-27.8-7.5c-6.4-0.1-12.8,0.9-18.8,3.1c-5.1,1.8-9.5,5-12.9,9.2c-3.1,4.1-4.7,9.3-4.7,15.6c-0.2,6.9,2.7,13.6,7.8,18.3
	c5.2,4.9,13.3,7.9,24.2,9l5.9,0.6c5.5,0.5,9.3,1.5,11.3,2.9c1.9,1.1,3.1,3.2,3.1,5.4c0,2.5-1.3,4.3-4,5.4c-3,1.1-6.2,1.7-9.4,1.6
	c-5.1,0-9-0.9-11.8-2.8s-4.4-4.1-4.8-6.7h-24.9c0.5,9.3,4.4,16.5,11.5,21.7s16.9,7.7,29.4,7.7c8.1,0,15-1.1,20.9-3.4
	s10.4-5.5,13.5-9.8s4.7-9.3,4.7-15.2C783.7,80.3,780.4,73,774.5,68.4z"/>
<path class="st0" d="M826.7,5.2h-26.1v22.4H788v20.5h12.5l-0.1,30.3c0,9,1.2,16.2,3.7,21.4c2.4,5.2,6.7,9.2,12,11.3
	c5.5,2.3,13,3.4,22.3,3.4h11.7V90.9h-11.8c-3.8,0-6.8-1-8.8-3s-3-4.9-3-8.8l0.1-31.1h23.6V27.5h-23.5V5.2z"/>
<path class="st0" d="M920.3,29.9c-6.2-2.6-13.6-3.9-22.5-3.9c-3.1,0-6.5,0.1-10.2,0.2s-7.2,0.3-10.6,0.5s-6.4,0.4-8.9,0.6v23.6
	c3.5-0.2,7.4-0.4,11.7-0.6c4.2-0.2,8.3-0.4,12.1-0.5s6.7-0.2,8.7-0.2c4.1,0,7.1,1,8.9,2.9s2.7,4.7,2.7,8.5h-13.5
	c-7-0.1-14,0.8-20.7,2.8c-6,1.9-10.7,4.8-14.1,8.8s-5.1,9.2-5.1,15.6c-0.2,5.2,1.2,10.3,4,14.7c2.7,4.1,6.5,7.4,11,9.4
	c5,2.3,10.5,3.4,16,3.3c6,0,11.1-1.1,15.2-3.3c4-2.1,7.4-5.4,9.6-9.4c1-1.8,1.8-3.6,2.4-5.6v16.1h22.4V61.3c0-8-1.6-14.6-4.9-19.7
	C931.1,36.3,926.1,32.2,920.3,29.9z M912.3,81.6c-0.2,3.8-0.9,6.8-2.2,9c-1,2-2.7,3.6-4.7,4.6c-2.1,0.9-4.3,1.4-6.6,1.3
	c-3.8,0-6.8-1-8.9-2.9c-2.1-1.9-3.2-4.7-3.1-7.5c-0.1-2.9,1-5.7,3.1-7.7c2.1-1.9,5-2.9,8.9-2.9h13.5V81.6z"/>
<path class="st0" d="M1009.4,86.5c-1.1,1.9-2.7,3.4-4.7,4.4c-2.3,1.1-4.8,1.6-7.3,1.6c-3.9,0-7.1-0.9-9.4-2.7c-2.4-2-4.2-4.7-5-7.7
	c-1-3.7-1.6-7.5-1.5-11.3c-0.1-4,0.5-8,1.7-11.8c1-3,2.8-5.7,5.2-7.8c2.5-2,5.7-2.9,8.9-2.8c4.2,0,7.5,1.2,9.7,3.6
	c2.2,2.4,3.6,5.5,3.8,8.7h27.7c-0.3-6.7-2.4-13.1-6-18.7c-3.6-5.4-8.6-9.8-14.4-12.8c-6.5-3.2-13.6-4.8-20.8-4.7
	c-6.5-0.1-13,1.1-19,3.6c-5.3,2.2-10,5.6-13.8,9.8c-3.8,4.2-6.6,9-8.5,14.3c-1.9,5.5-2.9,11.3-2.9,17.1v3.1c0,5.6,0.9,11.2,2.7,16.5
	c3.6,10.8,11.6,19.5,22,24c6.1,2.6,12.7,3.8,19.4,3.7c7.3,0.1,14.5-1.5,21-4.7c5.9-3,11-7.4,14.7-12.9c3.7-5.7,5.8-12.3,6.1-19.1
	h-27.7C1011.3,82.2,1010.6,84.5,1009.4,86.5z"/>
<polygon class="st0" points="1113.6,64.2 1140.7,27.6 1111.2,27.6 1081.8,67.5 1081.8,-0.1 1053.5,-0.1 1053.5,113.3 1081.8,113.3 
	1081.8,73.2 1089.1,73.2 1114.5,113.3 1146,113.3 "/>
<path class="st0" d="M37.2,105.1V79.2c0.6,0.2,1.3,0.4,1.9,0.6c6.9,2,31.7,7.5,36.7,8.9c4.4,1.1,8.5,3.2,11.9,6.3
	c2.9,2.9,4.5,6.9,4.3,11v28.6h37.2v-30.3c0,0-0.2-4.8-0.2-5.1c-0.6-7.8-2.4-14.5-5.4-19.8c-3.5-6.3-8.4-11.7-14.4-15.7
	c-5.1-3.4-10.7-6.2-16.6-8.1h36.6V0H92v55.4c-0.6-0.2-1.3-0.4-1.9-0.6c-6.9-2-31.7-7.5-36.7-8.9c-4.4-1.1-8.5-3.2-11.9-6.3
	c-2.9-2.8-4.3-6.5-4.3-11.3V0H0v30.3c0,0,0.2,4.8,0.2,5.1c0.6,7.8,2.4,14.5,5.4,19.8C9.1,61.5,14,66.9,20,70.9
	c5.1,3.4,10.6,6.1,16.4,8.1H0v26.2c0,0,0.1,2.1,0.1,3.1C2.4,158.9,41.6,200.1,92,205v-37.6C61.1,162.6,38,136.4,37.2,105.1z"/>
<path class="st0" d="M1047,186.9c0,5.8-1.3,10.5-4,14c-2.5,3.4-6.5,5.4-10.7,5.3c-4.8,0-8.5-1.7-11.1-5.1l-0.3,4.4h-6v-53.9h6.5
	v20.1c2.6-3.3,6.2-4.9,10.8-4.9c4.3-0.2,8.3,1.8,10.9,5.2c2.6,3.5,3.9,8.3,3.9,14.3L1047,186.9L1047,186.9z M1040.6,186.2
	c0-4.4-0.9-7.8-2.6-10.2c-1.7-2.4-4.5-3.7-7.4-3.6c-4-0.2-7.7,2.2-9.2,6v16.4c2,4,5.1,6,9.3,6c2.9,0.1,5.6-1.3,7.3-3.6
	C1039.7,194.7,1040.6,191,1040.6,186.2z"/>
<path class="st0" d="M1071,206.2c-4.7,0.2-9.3-1.7-12.6-5.1c-3.2-3.4-4.8-7.9-4.8-13.6v-1.2c-0.1-3.5,0.7-7,2.2-10.1
	c1.3-2.8,3.4-5.2,6-6.9c2.5-1.7,5.4-2.5,8.4-2.5c4.9,0,8.8,1.6,11.5,4.9s4.1,7.9,4.1,14v2.7h-25.7c0,3.3,1.1,6.6,3.3,9.1
	c2,2.3,5,3.6,8,3.5c2,0,4-0.4,5.8-1.4c1.6-1,3-2.2,4.2-3.7l4,3.1C1082.1,203.8,1077.3,206.2,1071,206.2z M1070.2,172.2
	c-2.5,0-4.9,1-6.6,2.9c-1.9,2.2-3.1,5-3.3,8h19v-0.5c-0.2-3.3-1.1-5.9-2.7-7.7C1075,173.1,1072.6,172.1,1070.2,172.2z"/>
<path class="st0" d="M1102.1,158.3v9.2h7.1v5h-7.1v23.6c-0.1,1.2,0.2,2.4,0.9,3.4c0.6,0.8,1.7,1.1,3.2,1.1c1,0,2.1-0.2,3.1-0.4v5.2
	c-1.6,0.5-3.3,0.7-5,0.7c-2.5,0.2-4.9-0.8-6.6-2.6c-1.5-1.8-2.2-4.2-2.2-7.5v-23.5h-6.9v-5h6.9v-9.2H1102.1z"/>
<path class="st0" d="M1140.2,205.5c-0.5-1.3-0.8-2.6-0.9-4c-2.8,3-6.7,4.7-10.8,4.7c-3.4,0.1-6.6-1-9.2-3.2c-2.4-2-3.7-5-3.6-8.1
	c-0.2-3.6,1.5-7.1,4.5-9.2c3-2.2,7.2-3.3,12.7-3.3h6.3v-3c0.1-2-0.6-3.9-2-5.4c-1.7-1.4-3.8-2.1-6-2c-2.1-0.1-4.1,0.6-5.8,1.8
	c-1.4,0.9-2.3,2.5-2.4,4.2h-6.5c0.1-2,0.8-3.9,2-5.5c1.4-1.9,3.3-3.3,5.5-4.2c2.4-1,5-1.5,7.6-1.5c4.4,0,7.8,1.1,10.3,3.3
	c2.5,2.3,4,5.6,3.9,9v17.5c-0.1,2.8,0.3,5.6,1.3,8.3v0.6L1140.2,205.5z M1129.4,200.5c2,0,4.1-0.5,5.8-1.6c1.7-1,3.1-2.4,4-4.1V187
	h-5.1c-8,0-11.9,2.3-11.9,7c-0.1,1.8,0.7,3.6,2,4.8C1125.7,200,1127.5,200.6,1129.4,200.5L1129.4,200.5z"/>
</svg>
